<svg width="60" height="60" viewBox="0 0 60 60" fill="none" xmlns="http://www.w3.org/2000/svg">
<path d="M57.7318 48.8411C57.3818 48.2842 57.0238 47.7034 56.9363 47.4807C56.6101 46.6135 56.5863 45.4202 56.5703 44.1553C56.5385 42.0471 56.4987 39.8752 55.0508 38.4671C54.5735 38.0057 53.9768 37.6795 53.2608 37.4885C56.2123 35.1576 57.8591 31.1878 57.8591 26.1281C57.8591 18.5146 52.1948 9.66016 44.8837 9.66016C37.5726 9.66016 31.9082 18.5146 31.9082 26.1281C31.9082 29.0398 32.7197 31.681 34.2551 33.7892L34.454 34.0518C35.5439 35.2849 36.5224 35.9929 37.31 36.5578C38.8057 37.6317 39.633 38.2284 40.0706 41.6413C40.1342 42.1266 40.5798 42.4687 41.065 42.4051C41.5503 42.3414 41.8924 41.8959 41.8288 41.4106C41.3117 37.4408 40.1661 36.4305 38.3443 35.1178C37.5885 34.5768 36.7372 33.9643 35.8224 32.93L35.6792 32.7391C34.3506 30.9173 33.6744 28.6977 33.6744 26.1281C33.6744 17.8543 39.6967 11.4342 44.8757 11.4342C50.0548 11.4342 56.0771 17.8543 56.0771 26.1281C56.0771 31.8958 53.7541 36.0168 49.7047 37.4488C43.6585 39.5808 43.4358 43.7495 43.2449 47.425C43.1812 48.6183 43.1176 49.748 42.8869 50.8299C42.7834 51.3073 43.0857 51.7846 43.5631 51.888C43.6267 51.9039 43.6904 51.9119 43.754 51.9119C44.1597 51.9119 44.5257 51.6255 44.6212 51.2118C44.8916 49.9946 44.9553 48.7376 45.0189 47.5204C45.2099 43.9723 45.3769 40.9015 50.2218 39.1592C51.9561 38.9205 53.1654 39.1115 53.8098 39.7479C54.7326 40.6469 54.7644 42.4528 54.7883 44.195C54.8122 45.5554 54.836 46.9636 55.2736 48.1171C55.4168 48.5069 55.7509 49.04 56.2203 49.7878C57.7955 52.3256 58.4638 53.8053 58.2092 54.1872C58.2092 54.1872 58.0978 54.2826 57.6841 54.2826H53.0381V48.2205C53.0381 47.7273 52.6403 47.3295 52.155 47.3295C51.6697 47.3295 51.272 47.7273 51.272 48.2205V54.2826H33.0698C32.6958 54.2826 32.5208 54.036 32.4651 53.9326C32.3299 53.6939 32.3378 53.4155 32.489 53.1768C32.6163 52.97 32.7993 52.7154 33.022 52.4131C34.3983 50.4879 37.2703 46.4862 36.2122 41.1003C36.1167 40.623 35.6473 40.3048 35.17 40.4003C34.6927 40.4957 34.3745 40.9651 34.4699 41.4424C34.5415 41.7925 34.5813 42.1346 34.6131 42.4687L28.2726 39.2706C27.8271 39.0399 27.5009 38.6421 27.3497 38.1648C27.1986 37.6874 27.2463 37.1703 27.477 36.7248C27.9623 35.802 29.0999 35.444 30.0546 35.9452L34.8438 38.2204C35.2893 38.4273 35.8144 38.2443 36.0292 37.7988C36.236 37.3533 36.0531 36.8282 35.6076 36.6134L30.8502 34.3541C29.0602 33.4153 26.8485 34.1075 25.9098 35.8974C25.6632 36.3668 25.5359 36.876 25.5041 37.3931L21.2797 39.9468C20.858 40.2014 20.7228 40.7423 20.9774 41.164C21.1444 41.4424 21.4388 41.5936 21.7411 41.5936C21.9002 41.5936 22.0593 41.5538 22.2025 41.4663L25.8939 39.2308C26.236 39.915 26.769 40.4798 27.4691 40.8458L28.7499 41.4902L22.4889 45.4918C22.0911 45.7225 21.8127 46.0885 21.6934 46.534C21.574 46.9795 21.6377 47.4329 21.8684 47.8307L25.6154 54.211C25.5677 54.2429 25.4722 54.2826 25.329 54.2826H8.29628V48.2205C8.29628 47.7273 7.89851 47.3295 7.40526 47.3295C6.91202 47.3295 6.5222 47.7273 6.5222 48.2205V54.2826H2.48876C2.34556 54.2826 2.25009 54.2429 2.20236 54.2031L3.49911 46.7567C3.62639 46.3589 4.74812 43.137 7.69962 42.0948C8.16104 41.9277 8.40766 41.4265 8.24059 40.9651C8.07353 40.5037 7.57233 40.265 7.11091 40.4241C3.10133 41.8402 1.8364 46.1203 1.78072 46.3033L0.5317 53.5746C0.324856 54.0599 0.364634 54.6088 0.635121 55.0702C0.993119 55.6749 1.70116 56.0488 2.48876 56.0488H25.3211C26.1087 56.0488 26.8167 55.6669 27.1747 55.0623C27.477 54.5452 27.485 53.9246 27.1827 53.3837L23.3958 46.9954L30.5797 42.4051L34.0483 44.1553C34.1756 44.2189 34.3108 44.2507 34.4461 44.2507C34.5017 44.2507 34.5574 44.2348 34.6131 44.2269C34.3585 47.4568 32.6083 49.9071 31.5662 51.363C31.3195 51.713 31.1047 52.0074 30.9615 52.2381C30.4842 53.0177 30.4603 53.9962 30.9058 54.7918C31.3514 55.5794 32.1549 56.0488 33.0618 56.0488H57.6841C58.9331 56.0488 59.498 55.4998 59.7525 55.0384C60.5481 53.6064 59.307 51.3789 57.7239 48.8411H57.7318Z" fill="black"/>
<path d="M42.9983 18.2044C42.4573 20.0421 44.5974 21.1082 44.5974 21.1082C44.5974 21.1082 44.1837 20.2888 45.4406 19.0954C46.7135 17.8942 47.1988 16.6929 46.6499 15.5473C46.1407 14.4733 45.1383 13.9084 45.1383 13.9084C45.1383 13.9084 45.2418 14.338 45.011 15.2927C44.7803 16.2474 43.4597 16.5974 42.9983 18.1965V18.2044Z" fill="black"/>
<path d="M41.3912 30.2331C42.4652 30.5911 43.6426 30.79 44.8916 30.79C46.1406 30.79 47.318 30.5911 48.392 30.2331C48.6466 30.1456 48.8137 29.8989 48.8137 29.6284C48.8137 29.1909 48.3841 28.8886 47.9624 29.0318C47.0237 29.342 45.9895 29.5091 44.8836 29.5091C43.7778 29.5091 42.7436 29.3341 41.8049 29.0318C41.3912 28.8965 40.9536 29.1909 40.9536 29.6284C40.9536 29.8989 41.1207 30.1456 41.3753 30.2331H41.3912Z" fill="black"/>
<path d="M36.8169 29.1352C36.8169 32.4128 40.4367 35.0779 44.8917 35.0779C49.3468 35.0779 52.9666 32.4128 52.9666 29.1352C52.9666 25.8575 49.3468 23.1924 44.8917 23.1924C40.4367 23.1924 36.8169 25.8575 36.8169 29.1352ZM44.8917 24.513C48.607 24.513 51.638 26.5814 51.638 29.1272C51.638 31.673 48.6149 33.7414 44.8917 33.7414C41.1686 33.7414 38.1534 31.673 38.1534 29.1272C38.1534 26.5814 41.1765 24.513 44.8917 24.513Z" fill="black"/>
<path d="M8.34368 32.6754C8.90852 32.4049 9.54496 32.2537 10.2132 32.2537C10.8815 32.2537 11.5179 32.4049 12.0828 32.6754C12.5124 32.8822 13.0136 32.5879 13.0136 32.1105C13.0136 31.8719 12.8863 31.6491 12.6715 31.5457C11.9237 31.1797 11.0963 30.9729 10.2053 30.9729C9.31425 30.9729 8.48688 31.1797 7.73906 31.5457C7.52426 31.6491 7.39697 31.8719 7.39697 32.1105C7.39697 32.5879 7.89817 32.8822 8.32777 32.6754H8.34368Z" fill="black"/>
<path d="M16.8642 32.3495C17.429 32.079 18.0655 31.9278 18.7337 31.9278C19.402 31.9278 20.0384 32.079 20.6033 32.3495C21.0329 32.5563 21.5341 32.2619 21.5341 31.7846C21.5341 31.5459 21.4068 31.3232 21.192 31.2198C20.4442 30.8538 19.6168 30.647 18.7258 30.647C17.8348 30.647 17.0074 30.8538 16.2596 31.2198C16.0448 31.3232 15.9175 31.5459 15.9175 31.7846C15.9175 32.2619 16.4187 32.5563 16.8483 32.3495H16.8642Z" fill="black"/>
<path d="M3.24448 30.3286C3.60248 36.1679 8.3917 40.7344 14.231 40.8139H14.4538H14.6766C19.9272 40.7185 24.43 36.9714 25.4483 31.8163C25.8143 31.2514 26.0688 30.8139 26.2041 30.5275L26.3075 30.3127C26.6496 29.5887 27.294 28.2442 27.5168 26.3747C27.7634 24.2824 27.7554 23.8448 27.4452 21.7128C27.1031 19.3182 25.5677 17.6714 25.1062 17.2259C24.4937 16.6292 23.7458 15.8655 23.4356 15.1733C23.1174 14.4812 23.1253 13.7254 23.181 13.0094C23.2446 12.1661 23.1651 11.4183 22.9344 10.7262C22.7275 10.1295 22.1945 9.21465 21.3592 8.62594C20.5318 8.03723 19.6169 7.75879 19.0044 7.6315C18.6066 7.54399 18.1292 7.50421 17.8031 7.48035C17.453 7.47239 17.1348 7.63946 16.9757 7.94972C16.8166 8.25203 16.8564 8.61798 17.0632 8.88052C17.3973 9.31011 17.644 9.71584 17.7553 10.042C18.002 10.7501 17.986 11.2592 17.1269 11.6331C16.8245 11.7684 16.5143 11.7525 16.204 11.5933C15.7585 11.3626 15.3607 10.8217 15.2494 10.2886C15.0902 9.53287 15.4164 8.25999 15.9574 7.56786C16.5779 6.7723 17.4451 6.3984 17.6917 6.29497C17.819 6.24724 17.9701 6.19951 18.1133 6.15973C18.5827 6.02449 18.8771 5.55511 18.7896 5.07778C18.7339 4.78343 18.5509 4.5368 18.2884 4.40156C18.0179 4.26632 17.5405 4.08334 16.8086 3.99583C15.7744 3.86854 14.1276 3.95605 12.1228 5.05391C10.3169 6.04835 8.93267 7.90994 8.51899 9.92269C8.13712 11.7684 8.23259 13.081 8.29623 13.9482V14.0914C8.3201 14.2346 8.32805 14.3619 8.34396 14.4971C8.38374 14.8869 8.42352 15.2927 8.37579 16.0087C8.34396 16.5496 8.13712 17.2656 7.7473 17.6236C7.3893 17.9578 6.69717 17.8623 6.371 17.6554C6.03687 17.4406 5.83798 17.194 5.79024 16.9235C5.7266 16.5576 5.92549 16.1996 6.10846 15.9609C6.42669 15.5393 6.74491 15.237 6.95175 15.062C7.25406 14.7994 7.34952 14.3698 7.16655 13.98C6.99948 13.622 6.60966 13.4152 6.21984 13.4868C5.25722 13.6538 4.62078 13.8368 3.59452 14.4096C2.08297 15.2449 -0.367324 17.9816 0.0463628 22.8663C0.420272 27.3214 2.64782 29.7478 3.24448 30.3286ZM5.88571 19.342C7.0313 19.7875 8.16099 19.6125 8.9804 18.8567C9.70436 18.1885 10.126 16.9792 10.1419 15.5313C10.1419 15.0063 10.1101 14.7119 10.0703 14.3619C10.0226 13.9084 9.95893 13.3992 9.97484 12.2139C9.99076 10.1136 10.8102 8.18043 12.1228 7.17804C13.3798 6.21542 14.3106 5.9688 14.9311 5.80969C15.0505 5.77787 15.1857 5.754 15.3369 5.73013C14.8675 6.15177 14.231 6.85186 13.8571 7.82243C13.3003 9.26238 13.3241 10.4478 13.9367 11.657C14.4379 12.6514 15.8301 13.9084 17.6042 13.3038C19.5692 12.6355 19.6408 11.0285 19.6169 10.5512C19.601 10.2568 19.5374 9.92269 19.418 9.55673C19.7601 9.68402 20.2454 9.92269 20.6352 10.2807C21.3035 10.9092 21.4785 11.7922 21.4785 12.2139C21.4785 12.3571 21.4706 12.5401 21.4626 12.7549C21.4387 13.2958 21.4069 13.972 21.4865 14.513C21.5819 15.229 21.757 15.8177 22.3377 16.7247C22.6718 17.2418 23.0696 17.6236 23.4515 17.9975C23.6981 18.2362 23.9368 18.4669 24.1436 18.7215L24.2311 18.8249C24.7403 19.4454 25.4324 20.2967 25.7745 22.031C26.0529 23.4152 25.9972 25.0461 25.862 26.0167C25.7506 26.86 25.6074 27.393 25.496 27.7669C24.9869 25.8178 23.4435 24.2665 21.4785 23.7812C21.3671 23.7573 21.2717 23.7414 21.2478 23.7335C20.9853 23.6857 20.8341 23.6698 20.7307 23.6619C20.5159 23.646 20.3011 23.63 20.0783 23.63C17.8985 23.63 15.8221 24.6404 14.4697 26.3508C13.1173 24.6404 11.0488 23.63 8.86107 23.63C8.63832 23.63 8.41556 23.638 8.19281 23.6619C8.19281 23.6619 7.99392 23.6778 7.68366 23.7335C7.65183 23.7335 7.56432 23.7573 7.43704 23.7812C5.46407 24.2744 3.91274 25.8337 3.41155 27.8146C3.30017 27.6555 3.2047 27.4964 3.1331 27.3532L3.08537 27.2578C2.60008 26.2713 1.30333 23.6539 1.96364 20.1455C2.41711 17.727 3.46723 16.6531 4.1355 16.1598C4.08776 16.3667 4.05594 16.6133 4.0639 16.9156C4.10368 17.9657 4.84354 18.9522 5.90162 19.3659L5.88571 19.342ZM4.92309 29.0477C5.05038 26.9952 6.75286 25.3723 8.82925 25.3564C10.7545 25.3564 12.5524 26.3986 13.523 28.101C13.6503 28.4113 13.9049 28.6261 14.2231 28.6897V28.7136H14.6686V28.6818C14.9709 28.6102 15.2175 28.3954 15.3448 28.0851C16.3074 26.4065 18.1054 25.3564 20.0704 25.3564C22.107 25.3723 23.8095 26.9952 23.9368 29.0477C23.9527 29.2466 23.9527 29.4455 23.9527 29.6444C23.9527 32.1822 22.9582 34.5689 21.1603 36.3589C19.3624 38.1568 16.9598 39.1353 14.414 39.1274H14.3742C11.8444 39.1274 9.46569 38.1489 7.66775 36.3589C5.8698 34.5689 4.87536 32.1822 4.87536 29.6444C4.87536 29.4455 4.87536 29.2466 4.89127 29.0477H4.92309Z" fill="black"/>
</svg>
