<svg width="60" height="60" viewBox="0 0 60 60" fill="none" xmlns="http://www.w3.org/2000/svg">
<path d="M23.9929 21.9151C24.1458 21.9534 24.3083 21.9725 24.4612 21.9725C24.8721 21.9725 25.2831 21.8291 25.6176 21.5615C26.0668 21.1984 26.3152 20.6345 26.2866 20.0611C26.2866 19.9273 26.2866 19.7935 26.3152 19.6788C26.4204 19.22 26.5255 19.0193 26.6689 18.7326C26.8696 18.3503 27.1085 17.8821 27.3474 16.8786C27.8539 14.7664 26.8982 12.683 25.694 11.7177C25.0919 11.2399 24.3369 10.8863 23.4386 10.676C22.8365 10.5327 22.2057 10.7429 21.7947 11.2112C21.3933 11.6795 21.2787 12.3294 21.508 12.9124C21.5654 13.0653 21.6323 13.2469 21.6896 13.4667C21.833 14.0305 21.6896 14.3555 21.3551 14.9767C21.2691 15.1392 21.1831 15.3016 21.1066 15.4737C20.7052 16.3338 19.8738 18.1305 21.3073 20.1566C21.8999 20.9977 22.8269 21.6093 23.9833 21.9151H23.9929ZM23.0563 16.372C23.1136 16.2382 23.1805 16.114 23.257 15.9802C23.6201 15.3016 24.1075 14.3746 23.7922 13.0366C24.012 13.1417 24.2127 13.2564 24.3752 13.3902C24.9295 13.8298 25.5985 15.0914 25.2831 16.3911C25.1015 17.1366 24.9486 17.4424 24.7766 17.7674C24.6045 18.1019 24.4038 18.4937 24.2413 19.2009C24.2031 19.373 24.1745 19.5545 24.1649 19.7361C23.7731 19.5832 23.3526 19.3347 23.0658 18.9333C22.3968 17.9872 22.6549 17.2513 23.0658 16.372H23.0563Z" fill="black"/>
<path d="M56.5634 24.1323C56.2098 23.8647 55.7224 23.8551 55.3496 24.094C54.9769 24.333 54.7953 24.7821 54.8909 25.2122C54.996 25.6901 55.0151 25.9481 55.0151 26.0628C55.0438 27.1427 54.652 27.9455 53.8014 28.5094C52.7692 29.1975 51.2401 28.7866 50.7813 28.4903C48.4207 27.0089 49.0706 24.6579 50.982 21.1027C53.5816 16.2859 54.4035 11.947 53.4095 8.21016C52.6163 5.24747 50.6762 2.76262 48.0862 1.39596C46.9872 0.822537 45.7352 0.42114 44.1487 0.153541C44.0436 0.134427 43.7378 0.115313 43.3746 0.105756C43.107 0.0961987 42.6291 0.0770846 42.4284 0.0579704C42.0748 -0.0662717 41.6543 0.010185 41.358 0.277783C40.928 0.679181 40.8993 1.34818 41.2912 1.77825C41.6735 2.19876 42.2564 2.87731 42.8681 3.91903C43.4224 4.86518 44.5692 6.83394 44.5501 8.85049C44.531 10.5039 43.9671 11.6125 42.7056 12.4535C41.7212 13.1129 41.0427 13.1129 40.4501 13.1129C40.1921 13.1129 39.5231 13.1129 38.5865 12.5586C37.9366 12.1764 37.1529 11.4213 37.0956 10.026C37.0478 8.9365 37.6595 7.56028 37.908 7.13021C38.0991 6.78616 38.0895 6.36564 37.8697 6.03115C37.6499 5.69665 37.2772 5.51507 36.8853 5.55329C36.7993 5.55329 34.8592 5.74443 33.3683 6.91996C29.5168 9.98778 28.5994 13.9635 30.8644 17.8341C31.0938 18.226 31.1415 18.6465 30.9982 19.153C30.5203 20.9593 28.0546 22.9376 26.621 23.7691C26.5828 23.7882 26.5637 23.8264 26.5255 23.8551C24.0215 25.3365 21.9285 27.8404 21.9285 31.95C21.9285 32.5425 22.4063 33.0204 22.9893 33.0204C23.5723 33.0204 24.0502 32.5425 24.0502 31.95C24.0502 28.6623 25.7227 26.7413 27.6628 25.6232C27.6914 25.6041 27.7201 25.5849 27.7583 25.5658C30.4248 24.0749 33.5499 24.0367 33.5977 24.0367C35.4709 24.0367 37.3154 24.6197 38.9306 25.7187C40.7464 26.9516 42.1131 28.7483 42.7916 30.7744C43.107 31.711 43.2695 32.6763 43.2695 33.6511C43.2695 38.2481 40.2781 43.5523 34.6107 48.9998C29.7557 53.6637 24.5089 56.9513 23.4672 57.5916L23.0945 57.8401C23.018 57.8879 22.932 57.8879 22.8555 57.8401L22.4446 57.5629C21.4411 56.9513 16.1942 53.6637 11.3392 48.9998C5.68145 43.5523 2.68053 38.2481 2.68053 33.6511C2.68053 28.5381 7.20104 24.0462 12.3428 24.0462C14.8849 24.0462 17.5036 25.4798 18.9754 26.8943C19.3959 27.3052 20.0744 27.2957 20.4854 26.8656C20.8963 26.4451 20.8868 25.7665 20.4567 25.3556C18.8129 23.7691 15.6973 21.9055 12.3428 21.9055C5.94906 21.9055 0.549316 27.2765 0.549316 33.6416C0.549316 46.3238 19.2047 58.079 21.2882 59.3501L21.6609 59.5986C22.0623 59.8662 22.521 60 22.9702 60C23.4194 60 23.8877 59.8662 24.2795 59.5986L24.6045 59.3788C26.7357 58.079 45.3816 46.3334 45.3816 33.6511C45.3816 32.4469 45.1809 31.2523 44.7986 30.0959C43.9767 27.6302 42.3138 25.4511 40.1156 23.9602C38.1469 22.6222 35.8914 21.9055 33.5881 21.9055C33.1007 21.9055 32.4795 21.9532 31.801 22.0488C32.3648 21.3129 32.814 20.5197 33.0338 19.7073C33.311 18.6561 33.1868 17.643 32.6802 16.7638C30.3961 12.8453 32.9478 9.95911 34.6681 8.59245C34.8306 8.4682 34.993 8.35352 35.1651 8.2675C35.0122 8.85049 34.9166 9.49081 34.9453 10.1311C35.0217 11.9661 35.9201 13.4857 37.4779 14.4127C38.9114 15.2633 40.0487 15.2633 40.4215 15.2633C41.1382 15.2633 42.352 15.2633 43.862 14.2502C45.697 13.0269 46.6336 11.2206 46.6527 8.89827C46.6813 6.28919 45.3338 3.98593 44.6744 2.86775C44.5788 2.70528 44.4832 2.55237 44.3877 2.39946C45.4485 2.61927 46.3182 2.91554 47.0636 3.30738C49.1375 4.39689 50.6858 6.39432 51.3261 8.78359C52.1767 11.9757 51.4217 15.7889 49.0802 20.1183C47.79 22.5076 45.1044 27.4868 49.6154 30.3253C50.5042 30.8891 52.989 31.6155 54.9482 30.3061C55.8657 29.6945 56.4965 28.8917 56.831 27.9264C57.6433 29.9047 57.3853 32.4469 56.3436 34.2819C55.3879 35.9735 53.7631 37.3115 51.7848 38.0474C51.3834 38.2003 50.9725 38.3054 50.5807 38.4105C49.042 38.8215 46.9394 39.3949 46.7291 42.2525C46.6431 43.4376 46.3182 44.269 44.7317 45.7886C43.6995 46.773 42.4953 47.3273 41.8741 47.5758C41.3294 47.786 41.0522 48.4073 41.272 48.952C41.4345 49.3725 41.8359 49.6306 42.266 49.6306C42.3902 49.6306 42.524 49.6019 42.6578 49.5541C43.5944 49.1909 44.9706 48.5028 46.2035 47.3273C48.0289 45.5879 48.7266 44.3073 48.8604 42.4054C48.9559 41.1152 49.5198 40.8954 51.1445 40.4558C51.5937 40.3315 52.062 40.2073 52.5398 40.0353C54.9865 39.1273 57.003 37.4548 58.2072 35.3236C60.1186 31.95 60.023 26.7222 56.5347 24.1418L56.5634 24.1323Z" fill="black"/>
</svg>
