<svg width="81" height="60" viewBox="0 0 81 60" fill="none" xmlns="http://www.w3.org/2000/svg">
<path d="M49.9624 16.1597C49.8706 16.6102 50.1627 17.0525 50.6133 17.1443C51.0638 17.236 51.5061 16.944 51.5979 16.4934C52.524 11.9542 56.5709 8.65832 61.2186 8.65832C66.6338 8.65832 71.0395 13.064 71.0395 18.4793C71.0395 23.8946 66.6338 28.3003 61.2186 28.3003C60.7596 28.3003 60.3841 28.6758 60.3841 29.1347C60.3841 29.5936 60.7596 29.9691 61.2186 29.9691C67.5517 29.9691 72.7083 24.8125 72.7083 18.4793C72.7083 12.1461 67.5517 6.9895 61.2186 6.9895C55.7866 6.9895 51.0555 10.8445 49.9624 16.1597Z" fill="#000000"/>
<path d="M67.5185 21.0992C68.0025 21.0992 68.3946 20.7071 68.3946 20.2231V19.6974C68.3946 18.2456 67.2181 17.0774 65.7746 17.0774C64.3311 17.0774 63.1545 18.2539 63.1545 19.6974V20.2231C63.1545 20.7071 63.5468 21.0992 64.0307 21.0992C64.5147 21.0992 64.9068 20.7071 64.9068 20.2231V19.6974C64.9068 19.2135 65.299 18.8213 65.7829 18.8213C66.2669 18.8213 66.6591 19.2135 66.6591 19.6974V20.2231C66.6591 20.7071 67.0512 21.0992 67.5352 21.0992H67.5185Z" fill="#000000"/>
<path d="M57.8474 19.7057V20.2314C57.8474 20.7154 58.2396 21.1075 58.7236 21.1075C59.2075 21.1075 59.5997 20.7154 59.5997 20.2314V19.7057C59.5997 18.2539 58.4232 17.0857 56.9797 17.0857C55.5361 17.0857 54.3596 18.2622 54.3596 19.7057V20.2314C54.3596 20.7154 54.7518 21.1075 55.2357 21.1075C55.7197 21.1075 56.1119 20.7154 56.1119 20.2314V19.7057C56.1119 19.2218 56.504 18.8296 56.988 18.8296C57.4719 18.8296 57.8641 19.2218 57.8641 19.7057H57.8474Z" fill="#000000"/>
<path d="M65.0485 5.83802C65.0485 5.83802 65.0735 5.83802 65.0819 5.84636C65.3989 5.93815 65.7411 5.84636 65.958 5.5877C66.6756 4.70322 67.7103 4.06907 68.9369 3.86881C71.3984 3.45995 73.8098 5.01195 74.4523 7.4234C74.9195 9.15897 74.3939 10.9029 73.2424 12.0877C73.0171 12.3214 72.9587 12.6802 73.0922 12.9806C73.0922 12.9889 73.1006 12.9972 73.1089 13.0139C73.3342 13.5563 74.0434 13.6982 74.4523 13.2809C75.9459 11.7456 76.6634 9.50942 76.1628 7.25651C75.3618 3.68524 71.8656 1.46572 68.2944 2.27509C66.8091 2.60886 65.5575 3.42658 64.6564 4.51965C64.2809 4.97858 64.4895 5.66279 65.0569 5.83802H65.0485Z" fill="#000000"/>
<path d="M49.6201 12.605C49.6201 12.605 49.6285 12.5883 49.6368 12.5716C49.762 12.2712 49.7119 11.9124 49.4866 11.6788C48.3352 10.4939 47.8095 8.74169 48.2767 7.01446C48.9192 4.60302 51.3307 3.05102 53.7922 3.45988C55.0187 3.66014 56.0534 4.30263 56.771 5.17876C56.9796 5.43743 57.33 5.52921 57.6471 5.43743C57.6555 5.43743 57.6722 5.43743 57.6805 5.42908C58.2479 5.2622 58.4565 4.56964 58.081 4.11072C57.1882 3.01764 55.9282 2.19992 54.443 1.86616C50.8717 1.05678 47.3756 3.27631 46.5746 6.84758C46.0739 9.09214 46.7832 11.3367 48.2851 12.872C48.6939 13.2892 49.3949 13.1474 49.6285 12.605H49.6201Z" fill="#000000"/>
<path d="M79.9596 27.641C78.95 25.7385 76.5803 25.0043 74.7112 26.0056L69.4378 28.5338C69.0122 28.7341 68.837 29.2431 69.0373 29.6686C69.2375 30.0942 69.7465 30.2694 70.172 30.0691L75.4788 27.5242C76.5552 26.9568 77.8986 27.3656 78.466 28.442C78.7414 28.9594 78.7998 29.5601 78.6246 30.1275C78.4493 30.6949 78.0655 31.1539 77.5565 31.4209L70.2972 35.1173L68.5533 36.3439L68.4865 36.4023C67.7856 37.0198 67.5437 38.2296 67.9275 39.2309L71.8826 46.0314C71.9827 46.3735 71.8825 46.6906 71.7657 46.8658C71.699 46.9576 71.5988 47.066 71.4486 47.066H58.0982C57.6309 47.066 57.2471 47.4499 57.2471 47.9171C57.2471 48.3844 57.6309 48.7682 58.0982 48.7682H71.4486C72.1162 48.7682 72.742 48.4345 73.1509 47.842C73.6348 47.1495 73.7516 46.2066 73.4512 45.3972L69.4878 38.5718C69.371 38.213 69.4795 37.8291 69.5796 37.704L71.1233 36.6109L78.3408 32.9395C79.2587 32.4555 79.9429 31.6295 80.2433 30.6365C80.5437 29.6436 80.4519 28.5839 79.9596 27.6577V27.641Z" fill="#000000"/>
<path d="M53.0414 37.4619H32.0227C30.5458 37.4619 29.3442 38.6635 29.3442 40.1404V55.6353C29.3442 57.1122 30.5458 58.3138 32.0227 58.3138H53.0414C54.5183 58.3138 55.7198 57.1122 55.7198 55.6353V40.1404C55.7198 38.6635 54.5183 37.4619 53.0414 37.4619ZM53.9592 55.6353C53.9592 56.1443 53.542 56.5615 53.033 56.5615H32.0143C31.5054 56.5615 31.0882 56.1443 31.0882 55.6353V40.1404C31.0882 39.6314 31.5054 39.2142 32.0143 39.2142H53.033C53.542 39.2142 53.9592 39.6314 53.9592 40.1404V55.6353Z" fill="#000000"/>
<path d="M46.9581 46.0815H37.6795C36.6782 46.0815 35.8271 46.699 35.5184 47.6502C35.2097 48.6015 35.5184 49.6027 36.3361 50.1952L40.9754 53.6079C41.3759 53.9083 41.8516 54.0502 42.3272 54.0502C42.8028 54.0502 43.27 53.9 43.6789 53.6079L48.3182 50.1952C49.1276 49.6027 49.4446 48.6015 49.1359 47.6502C48.8272 46.699 47.9761 46.0815 46.9748 46.0815H46.9581ZM47.417 48.9936L42.7777 52.4064C42.5024 52.6066 42.1269 52.6066 41.8515 52.4064L37.2123 48.9936C36.7867 48.6849 36.8868 48.2427 36.9286 48.1175C36.9703 47.9923 37.1455 47.5751 37.6712 47.5751H46.9498C47.4754 47.5751 47.6507 47.9923 47.6924 48.1175C47.7341 48.2427 47.8342 48.6849 47.4087 48.9936H47.417Z" fill="#000000"/>
<path d="M55.1441 25.338H53.9175C53.8007 25.338 53.6922 25.3631 53.5921 25.4048C52.8078 20.2648 48.5439 16.2764 43.2705 15.9259V11.6955C44.1383 11.3867 44.7641 10.5607 44.7641 9.5844C44.7641 8.34948 43.7628 7.33984 42.5195 7.33984C41.2762 7.33984 40.275 8.34113 40.275 9.5844C40.275 10.5607 40.9008 11.3951 41.7686 11.6955V15.9259C36.5201 16.268 32.2647 20.2315 31.4553 25.338C31.4553 25.338 31.4469 25.338 31.4386 25.338H30.212C29.7281 25.338 29.3442 25.7302 29.3442 26.2058V32.2052C29.3442 32.6892 29.7364 33.073 30.212 33.073H31.3051V34.1828C31.3051 34.6417 31.6723 35.0088 32.1312 35.0088C32.5901 35.0088 32.9572 34.6417 32.9572 34.1828V27.0986C32.9572 25.8053 33.2075 24.5537 33.7082 23.3772C34.1921 22.2424 34.8764 21.2161 35.7608 20.3399C36.6369 19.4638 37.6633 18.7712 38.7981 18.2873C39.7409 17.8868 40.7339 17.6531 41.7519 17.578V21.1493C41.7519 21.5999 42.119 21.967 42.5696 21.967C43.0202 21.967 43.3873 21.5999 43.3873 21.1493V17.5864C44.3719 17.6782 45.3231 17.9118 46.2326 18.2956C47.3758 18.7796 48.3937 19.4638 49.2699 20.3483C50.146 21.2244 50.8385 22.2507 51.3142 23.3855C51.8148 24.562 52.0651 25.8137 52.0651 27.107V34.1911C52.0651 34.6501 52.4322 35.0172 52.8912 35.0172C53.3501 35.0172 53.7172 34.6501 53.7172 34.1911V33.048C53.7757 33.0647 53.8341 33.0814 53.8925 33.0814H55.119C55.603 33.0814 55.9868 32.6892 55.9868 32.2136V26.2142C55.9868 25.7302 55.5947 25.3464 55.119 25.3464L55.1441 25.338Z" fill="#000000"/>
<path d="M41.5847 29.1846C41.5847 27.2404 39.9993 25.655 38.0552 25.655C36.111 25.655 34.5256 27.2404 34.5256 29.1846C34.5256 31.1288 36.111 32.7141 38.0552 32.7141C39.9993 32.7141 41.5847 31.1288 41.5847 29.1846ZM36.1277 29.1846C36.1277 28.1249 36.9955 27.2571 38.0552 27.2571C39.1149 27.2571 39.9826 28.1249 39.9826 29.1846C39.9826 30.2443 39.1149 31.1121 38.0552 31.1121C36.9955 31.1121 36.1277 30.2443 36.1277 29.1846Z" fill="#000000"/>
<path d="M50.3376 29.1846C50.3376 27.2404 48.7523 25.655 46.8081 25.655C44.8639 25.655 43.2786 27.2404 43.2786 29.1846C43.2786 31.1288 44.8639 32.7141 46.8081 32.7141C48.7523 32.7141 50.3376 31.1288 50.3376 29.1846ZM44.8806 29.1846C44.8806 28.1249 45.7484 27.2571 46.8081 27.2571C47.8678 27.2571 48.7356 28.1249 48.7356 29.1846C48.7356 30.2443 47.8678 31.1121 46.8081 31.1121C45.7484 31.1121 44.8806 30.2443 44.8806 29.1846Z" fill="#000000"/>
<path d="M27.4 46.4652H14.8839C14.7754 46.4652 14.6836 46.3735 14.6836 46.265V38.1962C14.6836 37.0364 13.8576 36.0351 12.7144 35.8265L12.4391 35.7765C10.9956 35.5178 9.35178 35.2174 8.42558 33.9992C6.99875 32.1217 6.41465 28.9426 5.90566 26.139C5.67203 24.854 5.44674 23.6358 5.1547 22.6512C4.5289 20.5068 3.561 19.4721 2.86844 18.9798L2.79334 18.9381C2.62646 18.8463 2.34276 18.6377 2.18422 18.4792C2.24263 18.4291 2.32608 18.379 2.40117 18.3373C2.75997 18.2372 5.25484 17.6114 7.64124 18.9297C9.36012 19.8726 9.53534 20.8155 9.88579 22.6929L9.97757 23.1602C10.5617 26.2141 12.3139 26.6647 13.5906 26.9985C13.8659 27.0736 14.1579 27.0152 14.3916 26.8316L14.7504 26.5145V16.0177C14.7504 11.3199 18.5719 7.49834 23.2696 7.49834C25.873 7.49834 28.3679 8.6081 29.9532 10.4772C31.7222 12.5632 32.0726 14.8578 32.0726 17.8867C32.0726 18.354 32.4565 18.7378 32.9237 18.7378C33.391 18.7378 33.7748 18.354 33.7748 17.8867C33.7748 15.2083 33.5829 12.121 31.2466 9.37576C29.3441 7.1312 26.3653 5.79614 23.2696 5.79614C17.6374 5.79614 13.0565 10.377 13.0565 16.0093V25.0376C12.389 24.7456 11.9217 24.2282 11.6464 22.8181L11.5629 22.3592C11.2041 20.4233 10.8871 18.7462 8.46729 17.4195C5.23814 15.6422 1.97563 16.6685 1.77537 16.7352C1.63352 16.7937 0.415283 17.3527 0.415283 18.4875C0.415283 19.4054 1.52505 20.1313 1.93391 20.3649C2.32608 20.657 3.03532 21.3912 3.54431 23.1101C3.81132 24.0113 4.01992 25.1878 4.25356 26.4311C4.80426 29.4266 5.42173 32.8143 7.09888 35.0171C8.42559 36.7694 10.5867 37.1532 12.1637 37.4369L12.4391 37.487C12.7728 37.5537 13.0231 37.8458 13.0231 38.1879V46.2566C13.0231 47.2996 13.8743 48.1507 14.9173 48.1507H27.4333C27.9006 48.1507 28.2844 47.7669 28.2844 47.2996C28.2844 46.8324 27.9006 46.4486 27.4333 46.4486L27.4 46.4652Z" fill="#000000"/>
<path d="M23.4116 10.6274C19.9822 10.6274 17.2036 13.406 17.2036 16.8354C17.2036 20.2649 19.9822 23.0434 23.4116 23.0434C26.841 23.0434 29.6196 20.2649 29.6196 16.8354C29.6196 13.406 26.841 10.6274 23.4116 10.6274ZM23.4116 21.7751C20.6831 21.7751 18.4803 19.564 18.4803 16.8438C18.4803 14.1236 20.6914 11.9124 23.4116 11.9124C26.1318 11.9124 28.3429 14.1236 28.3429 16.8438C28.3429 19.564 26.1318 21.7751 23.4116 21.7751Z" fill="#000000"/>
<path d="M23.4115 13.5061C21.5675 13.5061 20.0823 14.9997 20.0823 16.8354C20.0823 18.6711 21.5759 20.1647 23.4115 20.1647C25.2472 20.1647 26.7408 18.6711 26.7408 16.8354C26.7408 14.9997 25.2472 13.5061 23.4115 13.5061ZM23.4115 18.8797C22.2851 18.8797 21.3756 17.9702 21.3756 16.8437C21.3756 15.7173 22.2851 14.8078 23.4115 14.8078C24.538 14.8078 25.4475 15.7173 25.4475 16.8437C25.4475 17.9702 24.538 18.8797 23.4115 18.8797Z" fill="#000000"/>
<path d="M10.6536 32.4056C10.6536 32.9897 11.1292 33.4653 11.7133 33.4653C12.2974 33.4653 12.773 32.9897 12.773 32.4056C12.773 31.8216 12.2974 31.3459 11.7133 31.3459C11.1292 31.3459 10.6536 31.8216 10.6536 32.4056Z" fill="#000000"/>
<path d="M9.44396 30.8786C9.97798 30.8786 10.4035 30.4447 10.4035 29.919C10.4035 29.3934 9.96964 28.9595 9.44396 28.9595C8.91829 28.9595 8.48438 29.385 8.48438 29.919C8.48438 30.4531 8.91829 30.8786 9.44396 30.8786Z" fill="#000000"/>
<path d="M8.4674 27.6914C8.94666 27.6914 9.33519 27.3029 9.33519 26.8236C9.33519 26.3443 8.94666 25.9558 8.4674 25.9558C7.98814 25.9558 7.59961 26.3443 7.59961 26.8236C7.59961 27.3029 7.98814 27.6914 8.4674 27.6914Z" fill="#000000"/>
<path d="M7.88341 24.6289C8.30896 24.6289 8.65943 24.2785 8.65943 23.8529C8.65943 23.4274 8.30896 23.0769 7.88341 23.0769C7.45787 23.0769 7.10742 23.4274 7.10742 23.8529C7.10742 24.2785 7.45787 24.6289 7.88341 24.6289Z" fill="#000000"/>
<path d="M6.8154 20.5737C6.43157 20.5737 6.1145 20.8908 6.1145 21.2746C6.1145 21.6585 6.43157 21.9755 6.8154 21.9755C7.19923 21.9755 7.51632 21.6585 7.51632 21.2746C7.51632 20.8908 7.19923 20.5737 6.8154 20.5737Z" fill="#000000"/>
<path d="M50.7047 41.5674H33.9248C33.4576 41.5674 33.0737 41.9512 33.0737 42.4185C33.0737 42.8857 33.4576 43.2696 33.9248 43.2696H50.7047C51.172 43.2696 51.5558 42.8857 51.5558 42.4185C51.5558 41.9512 51.172 41.5674 50.7047 41.5674Z" fill="#000000"/>
</svg>
