<svg width="61" height="60" viewBox="0 0 61 60" fill="none" xmlns="http://www.w3.org/2000/svg">
<path d="M59.8233 15.0618C59.2954 15.0618 58.8782 15.4875 58.8782 16.0154V49.5105C58.478 49.4424 58.0778 49.3742 57.6777 49.3061L57.0561 49.204C54.1272 48.7782 51.1472 48.5654 48.1758 48.5654C42.2924 48.5654 36.4772 49.4168 30.8833 51.0941L30.7726 51.0771L30.6619 51.0941C25.0766 49.4168 19.2528 48.5654 13.3694 48.5654C10.398 48.5654 7.41798 48.7868 4.48907 49.221L3.86752 49.3061C3.46735 49.3657 3.06718 49.4338 2.66701 49.5105V16.0154C2.66701 15.4875 2.24131 15.0618 1.72194 15.0618C1.20257 15.0618 0.776855 15.4875 0.776855 16.0154V49.7148C0.776855 50.2257 1.00674 50.711 1.39839 51.0345C1.79005 51.3666 2.30942 51.4943 2.81176 51.4092C3.03313 51.3666 3.24598 51.3325 3.46735 51.29L4.17404 51.1793C7.1966 50.694 10.2958 50.4556 13.378 50.4556C19.091 50.4556 24.7445 51.2814 30.1681 52.9162C30.3639 52.9758 30.5683 53.0013 30.7726 52.9843C30.8152 52.9843 30.8577 52.9843 30.9003 52.9843C31.0621 52.9843 31.2239 52.9587 31.3856 52.9162C36.8092 51.2814 42.4627 50.4556 48.1758 50.4556C51.2579 50.4556 54.3486 50.7025 57.3797 51.1793L58.0863 51.29C58.3077 51.324 58.5206 51.3581 58.742 51.4006C59.2443 51.4943 59.7637 51.3581 60.1553 51.026C60.547 50.694 60.7769 50.2172 60.7769 49.7063V16.0154C60.7769 15.4875 60.3512 15.0618 59.8318 15.0618H59.8233Z" fill="black"/>
<path d="M7.94567 42.946C8.53315 42.929 9.12915 42.9119 9.71663 42.9119C15.8724 42.9119 21.9261 43.9336 27.6902 45.9345C27.7924 45.9686 27.8946 45.9856 28.0053 45.9856C28.3969 45.9856 28.763 45.7387 28.8993 45.347C29.0695 44.8532 28.8141 44.3083 28.3118 44.138C22.0708 41.9668 15.4893 40.894 8.85668 41.0132V8.91448C10.3467 8.88893 11.8622 8.9315 13.3778 9.03368C16.2471 9.2295 19.1164 9.65522 21.9176 10.3108L22.7775 10.5237C23.0585 10.5918 23.3309 10.6684 23.6119 10.745L23.8758 10.8217C24.0802 10.8813 24.293 10.9324 24.5059 11.0005L24.7698 11.0771C25.3658 11.2559 25.9619 11.4347 26.5493 11.6305C26.8303 11.7242 27.2475 11.8774 27.6902 12.0392V36.0324C27.6902 36.5603 28.116 36.986 28.6438 36.986C29.1717 36.986 29.5889 36.5603 29.5889 36.0324V10.711L28.9759 10.4811C28.3118 10.2342 27.5796 9.96173 27.1538 9.8255C26.5408 9.62116 25.9278 9.43385 25.3148 9.24653L25.0338 9.16139C24.8209 9.10179 24.5996 9.04219 24.3867 8.98259L24.1142 8.90596C23.8248 8.82933 23.5353 8.7527 23.2203 8.67608L22.3518 8.46322C19.4655 7.78208 16.4855 7.33934 13.514 7.135C11.6153 7.00728 9.72514 6.98174 7.87755 7.04134L6.95801 7.07539V42.98L7.94567 42.946Z" fill="black"/>
<path d="M32.748 12.4394C33.4887 12.1584 34.4678 11.8008 34.9787 11.6305C35.5662 11.4347 36.1622 11.2474 36.7667 11.0686L37.0306 10.992C37.235 10.9324 37.4478 10.8728 37.6522 10.8132L37.9246 10.7365C38.1971 10.6599 38.478 10.5918 38.776 10.5152L39.6275 10.3108C42.4201 9.65522 45.2894 9.2295 48.1588 9.03368C49.6743 8.9315 51.1984 8.88893 52.6883 8.91448V41.0218C46.1834 40.9196 39.7297 41.9413 33.5994 44.0273C33.5142 43.9166 33.4291 43.8059 33.3525 43.6867C33.1141 43.3121 32.6202 43.2014 32.2456 43.4398C31.871 43.6782 31.7603 44.172 31.9987 44.5467C32.186 44.8447 32.4159 45.1256 32.6628 45.3981C32.8076 45.7727 33.1651 46.0026 33.5398 46.0026C33.6419 46.0026 33.7526 45.9856 33.8548 45.9515C39.6275 43.9422 45.6726 42.929 51.8284 42.929C52.4244 42.929 53.0119 42.9375 53.5994 42.963L54.5785 42.9971V7.07539L53.6675 7.04134C51.8199 6.98174 49.9212 7.00728 48.031 7.135C45.0596 7.33934 42.0796 7.78208 39.1932 8.46322L38.2907 8.67608C38.0012 8.7527 37.7118 8.82082 37.4308 8.89745L37.1498 8.97408C36.9284 9.03368 36.7156 9.09328 36.4942 9.16139L36.2303 9.23802C35.6087 9.41682 34.9957 9.61265 34.3827 9.81699C33.8633 9.98727 32.8501 10.3619 32.0838 10.6514C31.59 10.8387 31.3431 11.3836 31.5304 11.8774C31.7177 12.3713 32.2626 12.6097 32.7565 12.4309L32.748 12.4394Z" fill="black"/>
<path d="M42.3011 20.5365C42.8034 21.0388 43.6123 21.0388 44.1061 20.5365L45.3406 19.3019L46.5752 20.5365C47.0776 21.0388 47.8864 21.0388 48.3802 20.5365C48.8826 20.0342 48.8826 19.2253 48.3802 18.7315L47.1457 17.4969L48.3802 16.2623C48.8826 15.76 48.8826 14.9511 48.3802 14.4573C47.8779 13.955 47.0691 13.955 46.5752 14.4573L45.3406 15.6919L44.1061 14.4573C43.6038 13.955 42.7949 13.955 42.3011 14.4573C41.7987 14.9597 41.7987 15.7685 42.3011 16.2623L43.5356 17.4969L42.3011 18.7315C41.7987 19.2338 41.7987 20.0427 42.3011 20.5365Z" fill="black"/>
<path d="M24.2338 15.6323C18.3846 12.9503 12.7651 13.6995 12.5267 13.7336C12.0585 13.8017 11.7264 14.2359 11.7945 14.7127C11.8626 15.1895 12.2969 15.5131 12.7737 15.4449C12.8247 15.4449 18.1206 14.7298 23.5187 17.2074C23.6379 17.2585 23.7571 17.284 23.8763 17.284C24.1998 17.284 24.5148 17.0967 24.6596 16.7817C24.8554 16.3475 24.6681 15.8366 24.2338 15.6408V15.6323Z" fill="black"/>
<path d="M24.2338 22.5034C18.3846 19.8214 12.7651 20.5706 12.5267 20.6047C12.0585 20.6728 11.7264 21.107 11.7945 21.5838C11.8626 22.0606 12.2969 22.3842 12.7737 22.316C12.8247 22.316 18.1206 21.6008 23.5187 24.0785C23.6379 24.1296 23.7571 24.1551 23.8763 24.1551C24.1998 24.1551 24.5148 23.9678 24.6596 23.6528C24.8554 23.2186 24.6681 22.7077 24.2338 22.5119V22.5034Z" fill="black"/>
<path d="M24.2338 29.3742C18.3846 26.6922 12.7651 27.4415 12.5267 27.4755C12.0585 27.5436 11.7264 27.9779 11.7945 28.4547C11.8626 28.9315 12.2969 29.255 12.7737 29.1869C12.8247 29.1869 18.1206 28.4717 23.5187 30.9493C23.6379 31.0004 23.7571 31.026 23.8763 31.026C24.1998 31.026 24.5148 30.8387 24.6596 30.5236C24.8554 30.0894 24.6681 29.5785 24.2338 29.3827V29.3742Z" fill="black"/>
<path d="M24.2338 36.2453C18.3846 33.5633 12.7651 34.3126 12.5267 34.3466C12.0585 34.4147 11.7264 34.849 11.7945 35.3258C11.8626 35.8026 12.2969 36.1261 12.7737 36.058C12.8247 36.058 18.1206 35.3428 23.5187 37.8204C23.6379 37.8715 23.7571 37.8971 23.8763 37.8971C24.1998 37.8971 24.5148 37.7098 24.6596 37.3947C24.8554 36.9605 24.6681 36.4496 24.2338 36.2538V36.2453Z" fill="black"/>
<path d="M39.5169 16.6965C39.0571 16.705 38.5973 16.7476 38.1461 16.8072C37.7119 16.8668 37.4053 17.2755 37.4649 17.7097C37.5245 18.1099 37.8651 18.3994 38.2568 18.3994C38.2908 18.3994 38.3334 18.3994 38.376 18.3994C38.7676 18.3398 39.1593 18.3142 39.5509 18.2972C39.9937 18.2887 40.3428 17.9226 40.3343 17.4798C40.3257 17.0371 39.9596 16.705 39.5169 16.6965Z" fill="black"/>
<path d="M35.2171 36.9094C35.3278 36.9094 35.4385 36.8839 35.5407 36.8413C35.8387 36.7051 36.1537 36.6029 36.4687 36.5348C36.8689 36.4497 37.2861 36.3986 37.7544 36.3645C38.1971 36.339 38.5292 35.9558 38.5036 35.5131C38.4781 35.0704 38.0949 34.7553 37.6522 34.7638C37.1073 34.7979 36.6135 34.866 36.1452 34.9597C35.7109 35.0533 35.2852 35.1896 34.885 35.3684C34.4849 35.5472 34.3061 36.024 34.4849 36.4241C34.6211 36.7221 34.9106 36.8924 35.2171 36.8924V36.9094Z" fill="black"/>
<path d="M35.2936 26.0536C35.3958 26.0962 35.5064 26.1217 35.6086 26.1217C35.9151 26.1217 36.2131 25.9429 36.3408 25.6364C36.5111 25.2277 36.3238 24.7594 35.9236 24.5892C35.1233 24.2486 34.5699 23.8484 34.2378 23.3631C33.9909 22.997 33.4886 22.9118 33.1225 23.1588C32.7563 23.4057 32.6627 23.908 32.9181 24.2741C33.4204 25.0064 34.1952 25.5938 35.2851 26.0621L35.2936 26.0536Z" fill="black"/>
<path d="M34.0676 20.8772C34.3145 20.2982 34.7828 19.7959 35.4554 19.3787C35.8301 19.1488 35.9492 18.6549 35.7108 18.2803C35.481 17.9057 34.9871 17.7865 34.6125 18.0249C33.6589 18.6209 32.9778 19.3616 32.5946 20.2471C32.4158 20.6558 32.6032 21.1241 33.0118 21.3029C33.114 21.3455 33.2247 21.371 33.3269 21.371C33.6334 21.371 33.9314 21.1922 34.0591 20.8857L34.0676 20.8772Z" fill="black"/>
<path d="M40.6066 25.7556C40.0872 25.6619 39.5679 25.5598 39.057 25.4576C38.6228 25.3725 38.2056 25.6534 38.1119 26.0791C38.0268 26.5134 38.3077 26.9306 38.7334 27.0242C39.2528 27.1264 39.7807 27.2286 40.3086 27.3222L41.2707 27.501C41.3218 27.5095 41.3729 27.5181 41.424 27.5181C41.7986 27.5181 42.1391 27.2541 42.2073 26.871C42.2924 26.4367 42.0029 26.0195 41.5687 25.9344L40.5981 25.7556H40.6066Z" fill="black"/>
<path d="M46.4216 29.3743C46.5748 29.5191 46.7706 29.5872 46.9665 29.5872C47.1793 29.5872 47.3922 29.502 47.554 29.3317C47.8605 29.0082 47.8434 28.5059 47.5199 28.1993C46.9154 27.6289 46.098 27.1691 45.0167 26.786C44.5995 26.6327 44.1397 26.8541 43.995 27.2713C43.8503 27.6885 44.0631 28.1483 44.4803 28.293C45.3488 28.5995 45.9788 28.9486 46.4216 29.3573V29.3743Z" fill="black"/>
<path d="M31.8197 41.5666C31.8197 41.5666 31.8792 41.5666 31.9048 41.5666C32.3135 41.5666 32.6541 41.2601 32.6966 40.8514C32.7733 40.1277 33.0116 39.404 33.3948 38.7654C33.6247 38.3823 33.497 37.8969 33.1223 37.6671C32.7477 37.4372 32.2539 37.5649 32.024 37.9395C31.5217 38.7739 31.2066 39.7275 31.1044 40.6811C31.0619 41.1239 31.3769 41.5155 31.8197 41.5581V41.5666Z" fill="black"/>
<path d="M43.5524 34.6446C43.0926 34.7212 42.6158 34.7723 42.1305 34.7894C41.9602 34.7894 41.7814 34.7894 41.6111 34.7894H41.1428C40.7086 34.7894 40.334 35.1299 40.334 35.5727C40.334 36.0154 40.6831 36.3815 41.1173 36.3815H41.6111C41.7984 36.3815 41.9857 36.3815 42.173 36.3815C42.735 36.3645 43.2884 36.3134 43.8248 36.2198C44.259 36.1431 44.5485 35.7259 44.4719 35.2917C44.3953 34.8575 43.9866 34.568 43.5439 34.6446H43.5524Z" fill="black"/>
<path d="M46.7967 34.9085C46.9841 34.9085 47.1714 34.8404 47.3246 34.7127C48.0994 34.0315 48.5677 33.1886 48.7295 32.1839L48.755 32.0051C48.8146 31.5709 48.5081 31.1622 48.0654 31.1026C47.6226 31.0515 47.2225 31.3495 47.1714 31.7923L47.1543 31.9285C47.0521 32.5586 46.7627 33.0779 46.2689 33.5122C45.9368 33.8016 45.9027 34.3125 46.1922 34.6445C46.354 34.8233 46.5754 34.917 46.7967 34.917V34.9085Z" fill="black"/>
</svg>
