<svg width="61" height="60" viewBox="0 0 61 60" fill="none" xmlns="http://www.w3.org/2000/svg">
<path d="M13.1117 40.9571C13.686 40.9571 14.1398 40.4847 14.1398 39.9198C14.1028 34.4458 14.0472 26.3693 14.0657 24.628L18.0391 20.0618V32.862C18.0391 33.4363 18.5023 33.8994 19.0672 33.8994C19.6322 33.8994 20.0953 33.4363 20.0953 32.862V16.7644C20.0953 10.9849 24.43 2.08398 30.1911 2.08398C35.9521 2.08398 40.2868 10.9941 40.2868 16.7644V16.9775C40.1849 17.2275 40.1849 17.5147 40.2868 17.7648V32.862C40.2868 33.4363 40.7499 33.8994 41.3149 33.8994C41.8799 33.8994 42.343 33.4363 42.343 32.862V20.2377L46.1682 24.628C46.1775 26.3693 46.1312 34.4458 46.0941 39.9198C46.0941 40.494 46.548 40.9571 47.1222 40.9571C47.6872 40.9571 48.1503 40.5033 48.1503 39.929C48.2306 29.2652 48.1688 23.8037 47.9651 23.5443L42.343 17.0794V16.7459C42.343 10.0772 37.4896 0 30.1818 0C22.874 0 18.0206 10.0772 18.0206 16.7459V16.9034L12.204 23.5906C12.025 23.8191 11.9756 29.2652 12.0558 39.929C12.0558 40.494 12.5189 40.9571 13.0839 40.9571H13.1117Z" fill="black"/>
<path d="M52.6608 50.9788L51.7809 47.2183C51.6142 46.5052 51.1326 45.9124 50.4657 45.5975C49.8914 45.3196 48.6874 44.662 48.5947 44.6157C48.252 44.4212 47.9186 44.2174 47.5852 43.9951C47.3444 43.8469 47.1128 43.6895 46.8349 43.5042L46.696 43.4116C39.9161 38.6972 35.9056 30.1112 35.7019 19.8858L35.6833 15.1158C35.6833 14.5231 35.4611 13.9581 35.0628 13.5135L31.9415 10.068C31.0338 9.0584 29.2832 9.0584 28.3755 10.068L25.2542 13.5135C24.8559 13.9581 24.6336 14.5231 24.6336 15.1158C24.6336 16.3014 24.6151 19.1634 24.6151 19.8673C24.4113 30.1112 20.4008 38.6972 13.5561 43.4579C13.2968 43.6339 13.0374 43.8099 12.7688 43.9766C12.4354 44.1896 11.7408 44.6064 11.7037 44.6249C11.7037 44.6249 10.5367 45.2733 9.93464 45.5512C9.26777 45.8661 8.78613 46.4588 8.61942 47.172L7.73025 50.9602C7.56354 51.6827 7.73026 52.4237 8.1841 53.0072C8.64721 53.5907 9.33261 53.9241 10.0736 53.9241H13.7506C13.7414 53.9797 13.7136 54.026 13.7136 54.0908V56.6287C13.7136 57.9809 14.8065 59.0739 16.1588 59.0739H20.1322C21.4845 59.0739 22.5774 57.9809 22.5774 56.6287V53.9241H25.7358C26.3101 53.9241 26.7639 53.461 26.7639 52.8868C26.7639 52.3125 26.3008 51.8494 25.7358 51.8494H10.0736C9.92538 51.8494 9.84202 51.766 9.80497 51.7197C9.76793 51.6734 9.70309 51.5715 9.74014 51.4326L10.6293 47.6444C10.6478 47.5425 10.7219 47.4592 10.8238 47.4128C11.4536 47.1072 12.6948 46.4311 12.704 46.4311C12.7225 46.4218 13.5191 45.9494 13.8803 45.7179C14.1674 45.5326 14.4546 45.3474 14.7417 45.1529L14.8806 45.0603C22.1792 39.9568 26.4861 30.7873 26.6991 19.8858C26.6991 19.1634 26.7176 16.3014 26.7176 15.1158C26.7176 15.0325 26.7454 14.9584 26.8102 14.8935L29.9316 11.448C30.1076 11.2535 30.265 11.2535 30.441 11.448L33.5623 14.8935C33.6179 14.9584 33.6549 15.0325 33.6549 15.1158L33.6735 19.9043C33.8865 30.8059 38.2119 39.9754 45.4919 45.0603C45.5104 45.0788 45.5382 45.0973 45.566 45.1158L45.6401 45.1622C45.9272 45.3567 46.2144 45.5512 46.5015 45.7271C46.8627 45.9587 47.2239 46.181 47.5759 46.3848C47.6407 46.4218 48.9467 47.1442 49.6043 47.4592C49.7062 47.5055 49.7803 47.5888 49.7988 47.6907L50.6787 51.4511C50.7158 51.5901 50.6509 51.6919 50.6139 51.7383C50.5768 51.7846 50.4935 51.8679 50.3453 51.8679H35.5351C34.9609 51.8679 34.507 52.331 34.507 52.9053C34.507 53.4795 34.9702 53.9426 35.5351 53.9426H37.8692C37.8599 53.9982 37.8322 54.0445 37.8322 54.1094V56.6472C37.8322 57.9995 38.9251 59.0924 40.2774 59.0924H44.2508C45.6031 59.0924 46.696 57.9995 46.696 56.6472V53.9426H50.336C51.077 53.9426 51.7624 53.6092 52.2255 53.0257C52.6886 52.4514 52.8553 51.7012 52.6793 50.9788H52.6608ZM20.4935 56.6287C20.4935 56.8417 20.3267 57.0084 20.1137 57.0084H16.1403C15.9272 57.0084 15.7605 56.8417 15.7605 56.6287V54.0908C15.7605 54.0353 15.7327 53.9797 15.7235 53.9241H20.4935V56.6287ZM44.612 56.6287C44.612 56.8417 44.4453 57.0084 44.2323 57.0084H40.2588C40.0458 57.0084 39.8791 56.8417 39.8791 56.6287V54.0908C39.8791 54.0353 39.8513 53.9797 39.842 53.9241H44.612V56.6287Z" fill="black"/>
<path d="M30.1907 38.4099C29.6164 38.4099 29.1626 38.873 29.1626 39.4473V58.9626C29.1626 59.5368 29.6257 59.9999 30.1907 59.9999C30.7557 59.9999 31.2188 59.5368 31.2188 58.9626V39.4473C31.2188 38.873 30.7557 38.4099 30.1907 38.4099Z" fill="black"/>
<path d="M31.0983 18.8484H29.2737C28.6995 18.8484 28.2456 19.3115 28.2456 19.8857C28.2456 20.46 28.7087 20.9231 29.2737 20.9231H31.0983C31.6726 20.9231 32.1264 20.46 32.1264 19.8857C32.1264 19.3115 31.6633 18.8484 31.0983 18.8484Z" fill="black"/>
</svg>
